<svg width="24" height="24" viewBox="0 0 24 24" fill="none" xmlns="http://www.w3.org/2000/svg">
<path d="M19 2V4H17V7C17.7956 7 18.5587 7.31607 19.1213 7.87868C19.6839 8.44129 20 9.20435 20 10V21C20 21.2652 19.8946 21.5196 19.7071 21.7071C19.5196 21.8946 19.2652 22 19 22H5C4.73478 22 4.48043 21.8946 4.29289 21.7071C4.10536 21.5196 4 21.2652 4 21V10C4 9.20435 4.31607 8.44129 4.87868 7.87868C5.44129 7.31607 6.20435 7 7 7V4H5V2H19ZM17 9H7C6.73478 9 6.48043 9.10536 6.29289 9.29289C6.10536 9.48043 6 9.73478 6 10V20H18V10C18 9.73478 17.8946 9.48043 17.7071 9.29289C17.5196 9.10536 17.2652 9 17 9ZM13 11V13H15V15H12.999L13 17H11L10.999 15H9V13H11V11H13ZM15 4H9V7H15V4Z" fill="#D6FF41"/>
</svg>
