<svg viewBox="0 0 696.32 165.36" xmlns="http://www.w3.org/2000/svg" xmlns:xlink="http://www.w3.org/1999/xlink" overflow="hidden"><defs></defs><g id="Layer_2"><g id="Layer_1-2"><path d="M261.52 145.72C252.993 145.866 244.533 144.185 236.71 140.79 229.602 137.675 223.595 132.494 219.47 125.92 215.27 119.293 213.17 110.993 213.17 101.02L213.17 97.19 228.32 97.19 228.32 101C228.32 111.58 231.42 119.457 237.62 124.63 243.82 129.803 251.787 132.387 261.52 132.38 271.52 132.38 279.123 130.13 284.33 125.63 289.411 121.464 292.304 115.2 292.18 108.63 292.18 103.89 290.993 100.12 288.62 97.32 285.899 94.2757 282.487 91.9299 278.67 90.48 273.805 88.521 268.788 86.9625 263.67 85.82L254.19 83.45C247.401 81.7391 240.798 79.3574 234.48 76.34 229.149 73.8702 224.535 70.0848 221.07 65.34 217.837 60.78 216.223 54.91 216.23 47.73 216.065 41.1193 217.948 34.6193 221.62 29.12 225.406 23.7462 230.664 19.5794 236.76 17.12 243.905 14.198 251.572 12.7687 259.29 12.92 267.272 12.7928 275.194 14.3145 282.56 17.39 289.134 20.1045 294.786 24.6561 298.84 30.5 302.793 36.28 304.77 43.5467 304.77 52.3L304.77 60 289.62 60 289.62 52.3C289.62 46.1 288.313 41.1 285.7 37.3 283.019 33.5202 279.268 30.6295 274.93 29 269.953 27.0965 264.657 26.1663 259.33 26.26 250.943 26.26 244.193 28.1167 239.08 31.83 233.967 35.5433 231.413 40.8033 231.42 47.61 231.42 52.11 232.513 55.7567 234.7 58.55 237.187 61.5544 240.383 63.8916 244 65.35 248.661 67.3206 253.486 68.8766 258.42 70L267.91 72.37C274.799 73.7728 281.508 75.9465 287.91 78.85 293.46 81.3392 298.302 85.1712 302 90 305.533 94.6667 307.297 100.78 307.29 108.34 307.449 115.329 305.475 122.201 301.63 128.04 297.631 133.797 292.084 138.304 285.63 141.04 278.81 144.16 270.773 145.72 261.52 145.72Z" fill="#D6FF41"/><path d="M313.71 143.16 313.71 15.44 328.12 15.44 328.12 90.62 328.12 90.62C329.743 90.6202 331.31 90.0221 332.52 88.94L371.52 53.94 391.59 53.94 342.17 97.37 393.07 143.16 373.19 143.16 332.56 106C331.348 104.889 329.764 104.272 328.12 104.27L328.12 104.27 328.12 143.13Z" fill="#D6FF41"/><path d="M427.92 145.72C418.92 145.72 411.013 143.803 404.2 139.97 397.469 136.222 391.96 130.615 388.33 123.82 384.563 116.893 382.677 108.867 382.67 99.74L382.67 97.55C382.67 88.31 384.557 80.22 388.33 73.28 391.924 66.5279 397.357 60.9319 404 57.14 418.111 49.6065 435.018 49.4683 449.25 56.77 455.682 60.3409 460.943 65.6961 464.4 72.19 468.04 78.8567 469.863 86.7033 469.87 95.73L469.87 102.29 397.07 102.29C397.43 111.903 400.53 119.417 406.37 124.83 412.21 130.243 419.51 132.95 428.27 132.95 435.93 132.95 441.83 131.187 445.97 127.66 450.032 124.225 453.271 119.923 455.45 115.07L467.86 121.07C465.831 125.149 463.287 128.95 460.29 132.38 456.78 136.364 452.496 139.593 447.7 141.87 442.567 144.437 435.973 145.72 427.92 145.72ZM397.27 90.43 455.27 90.43C454.79 82.1567 451.963 75.71 446.79 71.09 441.617 66.47 435.02 64.16 427 64.16 418.853 64.16 412.163 66.47 406.93 71.09 401.697 75.71 398.477 82.1567 397.27 90.43Z" fill="#D6FF41"/><path d="M488 143.16 470.07 53.94 484.67 53.94 499.21 132.2C499.349 132.947 500 133.488 500.76 133.49L500.76 133.49C501.489 133.493 502.125 132.997 502.3 132.29L521.52 53.94 545.43 53.94 564.65 132.29C564.825 132.997 565.461 133.493 566.19 133.49L566.19 133.49C566.95 133.488 567.601 132.947 567.74 132.2L582.28 53.94 596.88 53.94 579 143.16 554.37 143.16 534.66 63.61 532.29 63.61 512.58 143.16Z" fill="#D6FF41"/><path d="M654.17 145.72C644.93 145.72 637.723 143.957 632.55 140.43 628.54 137.823 625.109 134.419 622.47 130.43 621.665 129.169 620.266 128.413 618.77 128.43L618.77 128.43 618.77 143.2 604.77 143.2 604.77 15.44 619.18 15.44 619.18 68 619.18 68C620.688 68.01 622.098 67.2577 622.93 66 624.345 63.8394 626.025 61.8641 627.93 60.12 630.989 57.3871 634.553 55.2777 638.42 53.91 643.489 52.1477 648.835 51.3143 654.2 51.45 661.646 51.3656 668.978 53.2824 675.43 57 681.876 60.7848 687.148 66.2814 690.66 72.88 694.427 79.7533 696.313 87.9333 696.32 97.42L696.32 99.79C696.32 109.283 694.403 117.493 690.57 124.42 687.046 131.043 681.735 136.544 675.24 140.3 668.819 143.936 661.549 145.806 654.17 145.72ZM650.34 133C659.58 133 667.09 130.05 672.87 124.15 678.65 118.25 681.54 110.007 681.54 99.42L681.54 97.73C681.54 87.15 678.65 78.91 672.87 73.01 667.09 67.11 659.58 64.16 650.34 64.16 641.22 64.16 633.71 67.11 627.81 73.01 621.91 78.91 618.973 87.15 619 97.73L619 99.37C619 109.957 621.95 118.2 627.85 124.1 633.75 130 641.247 132.967 650.34 133Z" fill="#D6FF41"/><path d="M19.66 44 41 56.39 48.31 43.8 26.92 31.45C25.288 30.5101 24.7269 28.4252 25.6668 26.7932 25.9668 26.2723 26.3991 25.84 26.92 25.54L48.31 13.19 41 0.6 3.63 22.2C1.38141 23.4958-0.00301714 25.8948 1.14441e-07 28.49L0 71.69 14.53 71.69 14.53 47C14.5088 45.1113 16.0228 43.5631 17.9115 43.5419 18.5248 43.535 19.1288 43.6933 19.66 44Z" fill="#D6FF41"/><path d="M86.41 164.38 123.83 142.78 116.56 130.2 95.17 142.55C93.5311 143.489 91.4413 142.922 90.5024 141.283 90.2004 140.756 90.0442 140.157 90.05 139.55L90.05 114.85 75.52 114.85 75.52 139.55C75.5412 141.439 74.0272 142.987 72.1385 143.008 71.5251 143.015 70.9212 142.857 70.39 142.55L49 130.2 41.74 142.78 79.15 164.38C81.3951 165.681 84.1649 165.681 86.41 164.38Z" fill="#D6FF41"/><path d="M137.6 30.85 116.21 43.2 123.48 55.78 144.87 43.43C146.499 42.4854 148.586 43.0404 149.53 44.6697 149.84 45.204 149.999 45.8124 149.99 46.43L149.99 71.13 164.52 71.13 164.52 27.89C164.523 25.2948 163.139 22.8958 160.89 21.6L123.48 0 116.21 12.58 137.6 24.93C139.235 25.8761 139.793 27.9684 138.847 29.6031 138.547 30.1206 138.117 30.5505 137.6 30.85Z" fill="#D6FF41"/><path d="M129.12 107.23 136.38 94.65 100 73.63C93.3557 69.8058 89.2574 62.7263 89.25 55.06L89.25 12.59 74.72 12.59 74.72 55.06C74.7229 62.7212 70.6358 69.8012 64 73.63L28 94.43 35.24 107 71.24 86.19C77.8736 82.3601 86.0464 82.3601 92.68 86.19Z" fill="#D6FF41"/></g></g></svg>